<svg width="36" height="37" viewBox="0 0 36 37" fill="none" xmlns="http://www.w3.org/2000/svg">
<mask id="mask0_1_4949" style="mask-type:luminance" maskUnits="userSpaceOnUse" x="0" y="0" width="36" height="37">
<path d="M0 0.879883H36V36.8799H0V0.879883Z" fill="white"/>
</mask>
<g mask="url(#mask0_1_4949)">
<path d="M18 0.879883C33 0.879883 36 3.87988 36 18.8799C36 33.8799 33 36.8799 18 36.8799C3 36.8799 0 33.8799 0 18.8799C0 3.87988 3 0.879883 18 0.879883Z" fill="#1877F2"/>
<path d="M24.8895 24.0834L25.6875 18.8799H20.6955V15.5034C20.6955 14.0799 21.393 12.6924 23.6287 12.6924H25.8982V8.26288C25.8982 8.26288 23.8387 7.91113 21.8693 7.91113C17.7578 7.91113 15.0705 10.4026 15.0705 14.9139V18.8799H10.5V24.0834H15.0705V36.8401C16.125 36.8799 16.125 36.8799 17.883 36.8799C18.84 36.8799 19.875 36.8799 20.6955 36.8401V24.0826L24.8895 24.0834Z" fill="white"/>
</g>
</svg>
