<svg width="36" height="37" viewBox="0 0 36 37" fill="none" xmlns="http://www.w3.org/2000/svg">
<mask id="mask0_1_4935" style="mask-type:luminance" maskUnits="userSpaceOnUse" x="0" y="0" width="36" height="37">
<path d="M0 0.879883H36V36.8799H0V0.879883Z" fill="white"/>
</mask>
<g mask="url(#mask0_1_4935)">
<path d="M18 0.879883C33 0.879883 36 3.87988 36 18.8799C36 33.8799 33 36.8799 18 36.8799C3 36.8799 0 33.8799 0 18.8799C0 3.87988 3 0.879883 18 0.879883Z" fill="url(#paint0_linear_1_4935)"/>
<path fill-rule="evenodd" clip-rule="evenodd" d="M18 10.2714C20.8035 10.2714 21.135 10.2826 22.2428 10.3329C23.2665 10.3794 23.8223 10.5504 24.1927 10.6944C24.6825 10.8849 25.0328 11.1121 25.4002 11.4796C25.7677 11.8471 25.995 12.1966 26.1855 12.6871C26.3288 13.0569 26.5005 13.6134 26.5462 14.6371C26.5972 15.7441 26.6077 16.0756 26.6077 18.8799C26.6077 21.6834 26.5972 22.0149 26.5462 23.1226C26.4998 24.1464 26.3287 24.7021 26.1847 25.0726C26.0167 25.5286 25.7486 25.9412 25.4002 26.2801C25.0328 26.6476 24.6825 26.8749 24.1927 27.0654C23.8223 27.2086 23.2665 27.3804 22.2428 27.4261C21.1357 27.4771 20.8035 27.4876 18 27.4876C15.1957 27.4876 14.8643 27.4771 13.7573 27.4261C12.7335 27.3796 12.177 27.2086 11.8073 27.0646C11.3513 26.8965 10.9387 26.6285 10.5998 26.2801C10.2509 25.9415 9.98254 25.5288 9.8145 25.0726C9.6705 24.7021 9.4995 24.1464 9.453 23.1226C9.40275 22.0156 9.3915 21.6834 9.3915 18.8799C9.3915 16.0756 9.40275 15.7441 9.453 14.6371C9.4995 13.6134 9.6705 13.0569 9.8145 12.6871C9.98286 12.2311 10.2512 11.8185 10.5998 11.4796C10.9384 11.1308 11.351 10.8624 11.8073 10.6944C12.177 10.5504 12.7335 10.3794 13.7573 10.3329C14.8643 10.2826 15.1957 10.2714 18 10.2714ZM18 8.37988C15.1485 8.37988 14.79 8.39188 13.6702 8.44363C12.5527 8.49388 11.79 8.67163 11.1218 8.93113C10.421 9.19468 9.78619 9.60805 9.26175 10.1424C8.72771 10.6669 8.3146 11.3017 8.05125 12.0024C7.79175 12.6699 7.614 13.4334 7.56375 14.5501C7.51125 15.6706 7.5 16.0276 7.5 18.8799C7.5 21.7314 7.512 22.0891 7.56375 23.2089C7.614 24.3264 7.79175 25.0891 8.05125 25.7574C8.31975 26.4481 8.679 27.0339 9.2625 27.6174C9.78702 28.1516 10.4218 28.565 11.1225 28.8286C11.79 29.0881 12.5535 29.2659 13.671 29.3161C14.7908 29.3679 15.1485 29.3799 18 29.3799C20.8515 29.3799 21.21 29.3679 22.3298 29.3169C23.4473 29.2659 24.2108 29.0881 24.8783 28.8286C25.579 28.5651 26.2138 28.1517 26.7383 27.6174C27.2723 27.0928 27.6854 26.4581 27.9487 25.7574C28.2083 25.0899 28.386 24.3264 28.437 23.2089C28.488 22.0891 28.5007 21.7314 28.5007 18.8799C28.5007 16.0284 28.488 15.6699 28.437 14.5501C28.386 13.4326 28.209 12.6691 27.9495 12.0016C27.6858 11.3008 27.2721 10.666 26.7375 10.1416C26.2129 9.60763 25.5782 9.19452 24.8775 8.93113C24.21 8.67163 23.4465 8.49388 22.329 8.44363C21.2092 8.39113 20.8515 8.37988 18 8.37988ZM18 13.4874C16.57 13.4874 15.1986 14.0554 14.1875 15.0666C13.1763 16.0777 12.6083 17.4492 12.6083 18.8791C12.6083 20.3091 13.1763 21.6805 14.1875 22.6917C15.1986 23.7028 16.57 24.2709 18 24.2709C19.4189 24.2541 20.7739 23.6788 21.7714 22.6695C22.7688 21.6602 23.3282 20.2985 23.3282 18.8795C23.3282 17.4605 22.7688 16.0988 21.7714 15.0895C20.7739 14.0803 19.4189 13.5049 18 13.4881V13.4874ZM18 22.3794C17.0718 22.3794 16.1816 22.0106 15.5252 21.3543C14.8689 20.6979 14.5001 19.8077 14.5001 18.8795C14.5001 17.9513 14.8689 17.0611 15.5252 16.4047C16.1816 15.7484 17.0718 15.3796 18 15.3796C18.9282 15.3796 19.8184 15.7484 20.4748 16.4047C21.1311 17.0611 21.4999 17.9513 21.4999 18.8795C21.4999 19.8077 21.1311 20.6979 20.4748 21.3543C19.8184 22.0106 18.9282 22.3794 18 22.3794ZM24.8647 13.2744C24.8647 13.6086 24.732 13.929 24.4957 14.1653C24.2594 14.4016 23.9389 14.5344 23.6047 14.5344C23.2706 14.5344 22.9501 14.4016 22.7138 14.1653C22.4775 13.929 22.3447 13.6086 22.3447 13.2744C22.3447 12.9402 22.4775 12.6197 22.7138 12.3834C22.9501 12.1471 23.2706 12.0144 23.6047 12.0144C23.9389 12.0144 24.2594 12.1471 24.4957 12.3834C24.732 12.6197 24.8647 12.9402 24.8647 13.2744Z" fill="white"/>
</g>
<defs>
<linearGradient id="paint0_linear_1_4935" x1="32.1075" y1="5.12188" x2="3.783" y2="32.7436" gradientUnits="userSpaceOnUse">
<stop stop-color="#BA00B2"/>
<stop offset="0.5" stop-color="#F40000"/>
<stop offset="1" stop-color="#FFA800"/>
</linearGradient>
</defs>
</svg>
