<svg width="36" height="37" viewBox="0 0 36 37" fill="none" xmlns="http://www.w3.org/2000/svg">
<mask id="mask0_1_4942" style="mask-type:luminance" maskUnits="userSpaceOnUse" x="0" y="0" width="36" height="37">
<path d="M0 0.879883H36V36.8799H0V0.879883Z" fill="white"/>
</mask>
<g mask="url(#mask0_1_4942)">
<path d="M18 0.879883C33 0.879883 36 3.87988 36 18.8799C36 33.8799 33 36.8799 18 36.8799C3 36.8799 0 33.8799 0 18.8799C0 3.87988 3 0.879883 18 0.879883Z" fill="url(#paint0_linear_1_4942)"/>
<path d="M8.844 18.7292C14.091 16.4432 17.5905 14.9357 19.341 14.2075C24.3398 12.1285 25.3785 11.767 26.0558 11.755C26.2043 11.7527 26.5373 11.7895 26.7533 11.965C26.9348 12.112 26.9858 12.3122 27.009 12.4525C27.033 12.592 27.063 12.9115 27.039 13.1605C26.769 16.0067 25.596 22.9142 24.9998 26.1017C24.7478 27.4502 24.2513 27.9025 23.7698 27.9467C22.7243 28.0435 21.9308 27.2567 20.9183 26.5922C19.3343 25.5542 18.4395 24.9077 16.9013 23.8945C15.1238 22.723 16.2765 22.0795 17.289 21.0272C17.5545 20.752 22.1595 16.5632 22.2488 16.183C22.26 16.1357 22.2705 15.958 22.1655 15.865C22.0605 15.7712 21.9045 15.8035 21.7928 15.829C21.6338 15.865 19.1025 17.5375 14.1998 20.8465C13.4813 21.3407 12.831 21.5807 12.2483 21.568C11.6055 21.5545 10.3688 21.205 9.45 20.9057C8.32275 20.5397 7.4265 20.3455 7.5045 19.7237C7.545 19.3997 7.992 19.0682 8.844 18.7292Z" fill="white"/>
</g>
<defs>
<linearGradient id="paint0_linear_1_4942" x1="18" y1="0.879883" x2="18" y2="36.6129" gradientUnits="userSpaceOnUse">
<stop stop-color="#2AABEE"/>
<stop offset="1" stop-color="#229ED9"/>
</linearGradient>
</defs>
</svg>
