<svg width="36" height="37" viewBox="0 0 36 37" fill="none" xmlns="http://www.w3.org/2000/svg">
<mask id="mask0_1_4956" style="mask-type:luminance" maskUnits="userSpaceOnUse" x="0" y="0" width="36" height="37">
<path d="M0 0.879883H36V36.8799H0V0.879883Z" fill="white"/>
</mask>
<g mask="url(#mask0_1_4956)">
<path d="M18 0.879883C33 0.879883 36 3.87988 36 18.8799C36 33.8799 33 36.8799 18 36.8799C3 36.8799 0 33.8799 0 18.8799C0 3.87988 3 0.879883 18 0.879883Z" fill="#FF0000"/>
<path fill-rule="evenodd" clip-rule="evenodd" d="M27.3765 11.1226C27.8818 11.2535 28.3439 11.5149 28.7164 11.8805C29.0889 12.2462 29.3588 12.7033 29.499 13.2061C30 15.0444 30 18.8799 30 18.8799C30 18.8799 30 22.7154 29.4983 24.5536C29.3581 25.0563 29.0883 25.5134 28.7159 25.8791C28.3436 26.2447 27.8817 26.5061 27.3765 26.6371C25.5045 27.1299 18 27.1299 18 27.1299C18 27.1299 10.4948 27.1299 8.6235 26.6371C8.11822 26.5062 7.65621 26.2448 7.28371 25.8791C6.91121 25.5135 6.6413 25.0564 6.501 24.5536C6 22.7154 6 18.8799 6 18.8799C6 18.8799 6 15.0444 6.50175 13.2061C6.64199 12.7035 6.91179 12.2464 7.28415 11.8808C7.6565 11.5151 8.11836 11.2537 8.6235 11.1226C10.494 10.6299 18 10.6299 18 10.6299C18 10.6299 25.5045 10.6299 27.3765 11.1226ZM21.75 18.8799L15.75 22.4424V15.3174L21.75 18.8799Z" fill="white"/>
</g>
</svg>
